<?xml version="1.0" ?><svg id="outine" viewBox="0 0 48 48" xmlns="http://www.w3.org/2000/svg"><title/><path d="M47.086,9.154A2.376,2.376,0,0,0,45.015,7.9c-2.183.082-4.339,4.336-5.156,6.142a30.63,30.63,0,0,1-4.87.355.75.75,0,0,0,0,1.5h0a34.456,34.456,0,0,0,4.433-.273c-.554,2.6-2.058,9.284-3.536,12.724a21.593,21.593,0,0,1-3.666,6.072C28.9,36.44,24.835,38.6,24,38.6s-4.9-2.165-8.225-4.189a21.363,21.363,0,0,1-3.665-6.072c-1.478-3.439-2.982-10.127-3.536-12.723a37.9,37.9,0,0,0,6.765.218A18.741,18.741,0,0,0,24,13.076a18.741,18.741,0,0,0,8.661,2.763.75.75,0,1,0,.07-1.5,17.437,17.437,0,0,1-8.3-2.774.753.753,0,0,0-.869,0,17.341,17.341,0,0,1-8.3,2.774,34.25,34.25,0,0,1-7.128-.3C7.324,12.232,5.168,7.978,2.985,7.9A2.4,2.4,0,0,0,.914,9.154c-1.136,1.791-1.42,5.473.29,8.767,1.989,3.828,7.821,8.532,8.9,9.385.206.587.415,1.141.625,1.63a21.783,21.783,0,0,0,4.048,6.607.712.712,0,0,0,.134.1C16.626,36.692,22.344,40.1,24,40.1s7.374-3.413,9.087-4.459a.712.712,0,0,0,.134-.1,21.783,21.783,0,0,0,4.048-6.607c.21-.489.419-1.043.625-1.63,1.081-.853,6.913-5.557,8.9-9.385C48.506,14.627,48.222,10.945,47.086,9.154ZM2.536,17.229c-1.381-2.659-1.26-5.845-.355-7.272.167-.263.429-.56.748-.562.939.035,2.8,2.878,3.969,5.538.129.642,1.117,5.465,2.362,9.721C7.133,22.823,3.847,19.754,2.536,17.229Zm42.928,0c-1.31,2.523-4.6,5.593-6.724,7.425,1.246-4.26,2.235-9.088,2.363-9.723,1.168-2.659,3.027-5.5,3.968-5.536.3,0,.581.3.748.562C46.724,11.384,46.845,14.57,45.464,17.229Z" style="fill:#1c1c1b"/><path d="M36.122,20.456a.745.745,0,0,0-1.022-.28c-.065.036-6.549,3.7-11.1,3.7s-11.035-3.661-11.1-3.7a.75.75,0,0,0-.742,1.3c.279.159,6.9,3.894,11.842,3.894s11.562-3.735,11.842-3.894A.75.75,0,0,0,36.122,20.456Z" style="fill:#1c1c1b"/><path d="M34.429,25.66a.749.749,0,0,0-1.035-.232c-.046.029-4.643,2.9-9.394,2.9a14.1,14.1,0,0,1-2.86-.311.75.75,0,1,0-.3,1.468A15.584,15.584,0,0,0,24,29.83c5.182,0,9.993-3.007,10.2-3.135A.75.75,0,0,0,34.429,25.66Z" style="fill:#1c1c1b"/><path d="M18.6,28.843a.75.75,0,0,0,.243-1.46,22.651,22.651,0,0,1-4.238-1.955.749.749,0,1,0-.8,1.267A23.6,23.6,0,0,0,18.356,28.8.774.774,0,0,0,18.6,28.843Z" style="fill:#1c1c1b"/><path d="M15.748,32.033A19.109,19.109,0,0,0,24,34.206a19.109,19.109,0,0,0,8.252-2.173.749.749,0,1,0-.725-1.312A17.83,17.83,0,0,1,24,32.706a17.91,17.91,0,0,1-7.527-1.985.749.749,0,1,0-.725,1.312Z" style="fill:#1c1c1b"/></svg>