<svg width="64" height="64" xmlns="http://www.w3.org/2000/svg">

 <g>
  <title>background</title>
  <rect fill="none" id="canvas_background" height="402" width="582" y="-1" x="-1"/>
 </g>
 <g>
  <title>Layer 1</title>
  <g id="Glyph">
   <path fill="#ffffff" id="svg_1" d="m52.708,20.849c0,-12.664 -8.124,-20.849 -20.708,-20.849s-20.708,8.185 -20.708,20.849c0,10.556 16.311,31.747 18.175,34.118l2.278,2.928c-9.542,0.025 -17.237,1.38 -17.237,3.051c0,1.686 7.836,3.053 17.502,3.053s17.502,-1.367 17.502,-3.053c0,-1.672 -7.704,-3.028 -17.255,-3.051l2.292,-2.928c1.847,-2.386 18.159,-23.577 18.159,-34.118zm-27.414,-0.014c0,-3.604 3.002,-6.526 6.706,-6.526c3.704,0 6.706,2.922 6.706,6.526s-3.002,6.526 -6.706,6.526c-3.704,0 -6.706,-2.922 -6.706,-6.526z"/>
  </g>
 </g>
</svg>