<?xml version="1.0" ?><svg id="outine" viewBox="0 0 48 48" xmlns="http://www.w3.org/2000/svg"><title/><path d="M11.214,23.271a.752.752,0,0,0,1.052-.14l1.058-1.383a.751.751,0,0,0,.129-.649c0-.021-.561-2.12-.743-3.332-.029-.191.022-.243.053-.274.267-.273,1.327-.49,3.413-.212a.75.75,0,1,0,.2-1.486c-2.408-.322-3.938-.11-4.682.646a1.741,1.741,0,0,0-.466,1.548c.148.992.511,2.464.684,3.137l-.837,1.094A.749.749,0,0,0,11.214,23.271Z"/><path d="M20.026,23.234l1-1.013a.752.752,0,0,0,.157-.815l-1.813-4.332a3.5,3.5,0,0,0,.652-3.3c-.7-1.823-3.218-2.937-7.687-3.405-2.169-.224-9.421-.415-11.644,6.7-1.619,5.176.846,11.772,1.462,13.282L.062,35.14a.749.749,0,0,0,.388.987.741.741,0,0,0,.3.063.749.749,0,0,0,.687-.45l2.214-5.078a.751.751,0,0,0,0-.6c-.031-.072-3.167-7.311-1.533-12.539C4,11.493,10.293,11.668,12.174,11.865c4.983.522,6.176,1.76,6.443,2.453.354.916-.491,1.927-.664,2.12a.78.78,0,0,0-.177.705.852.852,0,0,0,.033.1L19.6,21.526l-1.032,1.05a.754.754,0,0,0-.127.879l1.217,2.281-6.036-1.644a.792.792,0,0,0-.129-.023L10.35,23.78a2.26,2.26,0,0,0-.5-1.046,2.85,2.85,0,0,0-3.914-.057,2.237,2.237,0,0,0-.725,1.594,6.9,6.9,0,0,0,1.964,4.508,2.054,2.054,0,0,0,1.55.778l.068,0a1.756,1.756,0,0,0,.414-.071.515.515,0,0,0,.054.023l2.445.5c1.716,1.424,2.92,2.423,3.794,3.122a20.744,20.744,0,0,1-3.294-1.322,1.8,1.8,0,0,1-.793-1.044.75.75,0,0,0-1.375.6,3.288,3.288,0,0,0,1.384,1.725,11.728,11.728,0,0,0,1.731.793l-1.125,2.8a.75.75,0,0,0,1.393.558l1.142-2.845c.474.164.99.338,1.555.521a1.835,1.835,0,0,0,.564.089,1.8,1.8,0,0,0,1.178-.439.692.692,0,0,0,.063-.08,1.332,1.332,0,0,0,.182-.18c.089-.1.108-.118,3.7-7.042a.754.754,0,0,0,0-.7Zm-2.719,9.431c-1-.808-2.943-2.407-4.4-3.614L13.93,25.73,20.046,27.4C19.074,29.272,17.909,31.513,17.307,32.665ZM8.3,27.779a5.657,5.657,0,0,1-1.584-3.418.724.724,0,0,1,.219-.558,1.35,1.35,0,0,1,1.816-.056,2.078,2.078,0,0,1,.2,1.135.751.751,0,0,0,.693.8.723.723,0,0,0,.721-.4l2.082.191-.911,2.96-1.012-.207a.735.735,0,0,0-.284-.593.749.749,0,0,0-1.05.143.79.79,0,0,1-.444.276C8.582,28.065,8.392,27.886,8.3,27.779Z"/><path d="M47.25,32.138H43.86a.752.752,0,0,0-.5.193L41.946,33.6h-.909a3.344,3.344,0,0,0,.48-2.672L39.235,21.76a.749.749,0,0,0-.727-.569h0l-2.773,0a.98.98,0,0,1,0-1.96h4.778a1.1,1.1,0,0,1,.954.553l2.345,4.093a.747.747,0,0,0,.65.377H47.25a.75.75,0,0,0,0-1.5H44.9l-2.128-3.715a2.606,2.606,0,0,0-2.256-1.308H35.734a2.48,2.48,0,1,0,0,4.96l2.187,0,2.14,8.6a1.869,1.869,0,0,1-1.349,2.255,1.791,1.791,0,0,1-.362.055h-.793a2.261,2.261,0,0,0,.031-.31A2.144,2.144,0,0,0,36,31.229a2.119,2.119,0,0,0,.136-.728A2.142,2.142,0,0,0,34.954,28.6a2.111,2.111,0,0,0,.2-.888A2.138,2.138,0,0,0,34.292,26a2.126,2.126,0,0,0,.3-1.085,2.148,2.148,0,0,0-2.147-2.146H24.337V16.386h1.822V21.4a.75.75,0,0,0,1.5,0v-5.01h7.258a1.833,1.833,0,0,1,1.3.542.749.749,0,1,0,1.062-1.057,3.313,3.313,0,0,0-2.366-.985H23.587a.75.75,0,0,0-.75.75v7.883a.75.75,0,0,0,.75.75h5.682a2.1,2.1,0,0,0-.111.646,2.135,2.135,0,0,0,.861,1.708,2.114,2.114,0,0,0,.872,2.989,2.12,2.12,0,0,0-.2.889,2.144,2.144,0,0,0,1.593,2.065A2.127,2.127,0,0,0,34.3,35.441h1.145a2.136,2.136,0,0,0,1.188-.36.732.732,0,0,0,.115.023h5.489a.748.748,0,0,0,.5-.193l1.412-1.273h3.1a.75.75,0,0,0,0-1.5ZM31.86,28.354a.646.646,0,0,1,0-1.292h1.146a.646.646,0,0,1,0,1.292H31.86Zm.017-4.085h.573a.647.647,0,1,1,0,1.293H31.305a.647.647,0,1,1,0-1.293Zm.963,5.585h1.145a.647.647,0,1,1,0,1.294H32.84a.647.647,0,1,1,0-1.294Zm2.6,4.087H34.3a.647.647,0,1,1,0-1.293h1.145a.647.647,0,1,1,0,1.293Z"/></svg>