<?xml version="1.0" encoding="UTF-8" standalone="no"?>
<!-- Created with Inkscape (http://www.inkscape.org/) -->

<svg
   xmlns:dc="http://purl.org/dc/elements/1.1/"
   xmlns:cc="http://creativecommons.org/ns#"
   xmlns:rdf="http://www.w3.org/1999/02/22-rdf-syntax-ns#"
   xmlns:svg="http://www.w3.org/2000/svg"
   xmlns="http://www.w3.org/2000/svg"
   xmlns:sodipodi="http://sodipodi.sourceforge.net/DTD/sodipodi-0.dtd"
   xmlns:inkscape="http://www.inkscape.org/namespaces/inkscape"
   width="48pt"
   height="48pt"
   viewBox="0 0 16.933334 16.933333"
   version="1.1"
   id="svg979"
   inkscape:version="0.92.4 (5da689c313, 2019-01-14)"
   sodipodi:docname="8 - Nail Polish.svg"
   inkscape:export-filename="E:\TR Design Studio Creative\Project Design\TR Creative Design\Icon Design\Project Hiring\Icon Icons\Project - 001\002 - Beauty And Fashion\Send\4 - Filled Line\8 - Nail Polish.png"
   inkscape:export-xdpi="768"
   inkscape:export-ydpi="768">
  <defs
     id="defs973" />
  <sodipodi:namedview
     id="base"
     pagecolor="#ffffff"
     bordercolor="#666666"
     borderopacity="1.0"
     inkscape:pageopacity="0.0"
     inkscape:pageshadow="2"
     inkscape:zoom="6.0435533"
     inkscape:cx="26.64934"
     inkscape:cy="37.000654"
     inkscape:document-units="pt"
     inkscape:current-layer="layer1"
     showgrid="false"
     units="pt"
     inkscape:window-width="1366"
     inkscape:window-height="716"
     inkscape:window-x="-8"
     inkscape:window-y="-8"
     inkscape:window-maximized="1"
     inkscape:snap-bbox="true"
     inkscape:bbox-nodes="true"
     inkscape:snap-nodes="false"
     showguides="false">
    <inkscape:grid
       type="xygrid"
       id="grid1526" />
    <sodipodi:guide
       position="0.97013909,15.963209"
       orientation="56.666615,0"
       id="guide1528"
       inkscape:locked="false" />
    <sodipodi:guide
       position="0.97013909,0.97016731"
       orientation="0,56.666667"
       id="guide1530"
       inkscape:locked="false" />
    <sodipodi:guide
       position="15.963195,0.97016731"
       orientation="-56.666615,0"
       id="guide1532"
       inkscape:locked="false" />
    <sodipodi:guide
       position="15.963195,15.963209"
       orientation="0,-56.666667"
       id="guide1534"
       inkscape:locked="false" />
  </sodipodi:namedview>
  <metadata
     id="metadata976">
    <rdf:RDF>
      <cc:Work
         rdf:about="">
        <dc:format>image/svg+xml</dc:format>
        <dc:type
           rdf:resource="http://purl.org/dc/dcmitype/StillImage" />
        <dc:title></dc:title>
      </cc:Work>
    </rdf:RDF>
  </metadata>
  <g
     inkscape:label="Layer 1"
     inkscape:groupmode="layer"
     id="layer1"
     transform="translate(0,-280.06668)">
    <g
       id="g1216"
       transform="translate(-3.3290406e-7,0.54587381)">
      <g
         id="g2233"
         style="display:inline;stroke-width:0.81616575"
         transform="matrix(1.2252413,0,0,1.2252413,27.657094,-68.12815)">
        <g
           style="stroke-width:0.81616575"
           id="g2201">
          <path
             inkscape:export-ydpi="700.72992"
             inkscape:export-xdpi="700.72992"
             inkscape:connector-curvature="0"
             id="path1585"
             d="m -20.71875,289.12109 a 0.26460945,0.26460945 0 0 0 -0.132812,0.0352 c -0.555226,0.31938 -0.925782,0.92187 -0.925782,1.60742 v 5.24219 a 0.26460945,0.26460945 0 0 0 0.0098,0.12695 0.26460945,0.26460945 0 0 0 0.03125,0.0684 0.26460945,0.26460945 0 0 0 0.002,0.004 0.26460945,0.26460945 0 0 0 0.002,0.002 0.26460945,0.26460945 0 0 0 0.01367,0.0195 0.26460945,0.26460945 0 0 0 0.002,0.002 0.26460945,0.26460945 0 0 0 0.01563,0.0176 0.26460945,0.26460945 0 0 0 0.0059,0.004 0.26460945,0.26460945 0 0 0 0.01562,0.0137 0.26460945,0.26460945 0 0 0 0.002,0 0.26460945,0.26460945 0 0 0 0.208984,0.0547 h 4.189453 a 0.26460945,0.26460945 0 0 0 0.263672,-0.26367 v -5.29102 c 0,-0.68638 -0.373343,-1.28833 -0.929687,-1.60742 a 0.26460945,0.26460945 0 0 0 -0.13086,-0.0352 z"
             style="color:#000000;font-style:normal;font-variant:normal;font-weight:normal;font-stretch:normal;font-size:medium;line-height:normal;font-family:sans-serif;font-variant-ligatures:normal;font-variant-position:normal;font-variant-caps:normal;font-variant-numeric:normal;font-variant-alternates:normal;font-feature-settings:normal;text-indent:0;text-align:start;text-decoration:none;text-decoration-line:none;text-decoration-style:solid;text-decoration-color:#000000;letter-spacing:normal;word-spacing:normal;text-transform:none;writing-mode:lr-tb;direction:ltr;text-orientation:mixed;dominant-baseline:auto;baseline-shift:baseline;text-anchor:start;white-space:normal;shape-padding:0;clip-rule:nonzero;display:inline;overflow:visible;visibility:visible;opacity:1;isolation:auto;mix-blend-mode:normal;color-interpolation:sRGB;color-interpolation-filters:linearRGB;solid-color:#000000;solid-opacity:1;vector-effect:none;fill:#ffd180;fill-opacity:1;fill-rule:nonzero;stroke:none;stroke-width:0.43188715;stroke-linecap:round;stroke-linejoin:round;stroke-miterlimit:4;stroke-dasharray:none;stroke-dashoffset:0;stroke-opacity:1;paint-order:markers fill stroke;color-rendering:auto;image-rendering:auto;shape-rendering:auto;text-rendering:auto;enable-background:accumulate" />
          <path
             inkscape:export-ydpi="700.72992"
             inkscape:export-xdpi="700.72992"
             inkscape:connector-curvature="0"
             id="path1590"
             d="m -20.718498,289.12089 a 0.26460944,0.26460944 0 0 0 -0.132809,0.0351 c -0.38959,0.22411 -0.684846,0.58943 -0.828372,1.0232 l 2.54558,5.3e-4 a 0.26460944,0.26460944 0 0 1 0.130742,0.0351 c 0.556344,0.31909 0.929659,0.92127 0.929659,1.60765 v 4.49637 h 0.794783 a 0.26460944,0.26460944 0 0 0 0.26355,-0.26407 v -5.29065 c 0,-0.68638 -0.373315,-1.28856 -0.929659,-1.60765 a 0.26460944,0.26460944 0 0 0 -0.130741,-0.0351 z"
             style="color:#000000;font-style:normal;font-variant:normal;font-weight:normal;font-stretch:normal;font-size:medium;line-height:normal;font-family:sans-serif;font-variant-ligatures:normal;font-variant-position:normal;font-variant-caps:normal;font-variant-numeric:normal;font-variant-alternates:normal;font-feature-settings:normal;text-indent:0;text-align:start;text-decoration:none;text-decoration-line:none;text-decoration-style:solid;text-decoration-color:#000000;letter-spacing:normal;word-spacing:normal;text-transform:none;writing-mode:lr-tb;direction:ltr;text-orientation:mixed;dominant-baseline:auto;baseline-shift:baseline;text-anchor:start;white-space:normal;shape-padding:0;clip-rule:nonzero;display:inline;overflow:visible;visibility:visible;opacity:1;isolation:auto;mix-blend-mode:normal;color-interpolation:sRGB;color-interpolation-filters:linearRGB;solid-color:#000000;solid-opacity:1;vector-effect:none;fill:#f8a364;fill-opacity:1;fill-rule:nonzero;stroke:none;stroke-width:0.43188715;stroke-linecap:round;stroke-linejoin:round;stroke-miterlimit:4;stroke-dasharray:none;stroke-dashoffset:0;stroke-opacity:1;paint-order:markers fill stroke;color-rendering:auto;image-rendering:auto;shape-rendering:auto;text-rendering:auto;enable-background:accumulate" />
          <path
             inkscape:export-ydpi="700.72992"
             inkscape:export-xdpi="700.72992"
             inkscape:connector-curvature="0"
             id="path1603"
             d="m -19.396484,287.32422 c -0.714375,0 -1.140429,0.22711 -1.361328,0.49219 -0.2209,0.26508 -0.226563,0.56445 -0.226563,0.56445 v 2.11719 c 0,0.8749 0.712992,1.58789 1.587891,1.58789 0.874898,0 1.58789,-0.71299 1.58789,-1.58789 v -2.11719 c 0,0 -0.0057,-0.29937 -0.226562,-0.56445 -0.2209,-0.26508 -0.646953,-0.49219 -1.361328,-0.49219 z"
             style="color:#000000;font-style:normal;font-variant:normal;font-weight:normal;font-stretch:normal;font-size:medium;line-height:normal;font-family:sans-serif;font-variant-ligatures:normal;font-variant-position:normal;font-variant-caps:normal;font-variant-numeric:normal;font-variant-alternates:normal;font-feature-settings:normal;text-indent:0;text-align:start;text-decoration:none;text-decoration-line:none;text-decoration-style:solid;text-decoration-color:#000000;letter-spacing:normal;word-spacing:normal;text-transform:none;writing-mode:lr-tb;direction:ltr;text-orientation:mixed;dominant-baseline:auto;baseline-shift:baseline;text-anchor:start;white-space:normal;shape-padding:0;clip-rule:nonzero;display:inline;overflow:visible;visibility:visible;opacity:1;isolation:auto;mix-blend-mode:normal;color-interpolation:sRGB;color-interpolation-filters:linearRGB;solid-color:#000000;solid-opacity:1;vector-effect:none;fill:#ff4081;fill-opacity:1;fill-rule:nonzero;stroke:none;stroke-width:0.43188798;stroke-linecap:round;stroke-linejoin:round;stroke-miterlimit:4;stroke-dasharray:none;stroke-dashoffset:0;stroke-opacity:1;paint-order:markers fill stroke;color-rendering:auto;image-rendering:auto;shape-rendering:auto;text-rendering:auto;enable-background:accumulate" />
          <path
             inkscape:export-ydpi="700.72992"
             inkscape:export-xdpi="700.72992"
             inkscape:connector-curvature="0"
             id="path1620"
             d="m -19.396094,287.32408 c -0.714375,0 -1.140775,0.2274 -1.361674,0.49248 -0.2209,0.26508 -0.226343,0.5643 -0.226343,0.5643 v 0.0517 c 0.156037,-0.0312 0.330708,-0.0501 0.529684,-0.0501 0.714375,0 1.140257,0.2274 1.361157,0.49248 0.220862,0.26508 0.226343,0.56431 0.226343,0.56431 v 2.11718 c 0,0.16016 -0.02433,0.31451 -0.06873,0.46044 0.651229,-0.19817 1.127063,-0.80403 1.127063,-1.51877 v -2.11719 c 0,0 -0.0055,-0.29922 -0.226343,-0.5643 -0.2209,-0.26508 -0.646782,-0.49248 -1.361157,-0.49248 z"
             style="color:#000000;font-style:normal;font-variant:normal;font-weight:normal;font-stretch:normal;font-size:medium;line-height:normal;font-family:sans-serif;font-variant-ligatures:normal;font-variant-position:normal;font-variant-caps:normal;font-variant-numeric:normal;font-variant-alternates:normal;font-feature-settings:normal;text-indent:0;text-align:start;text-decoration:none;text-decoration-line:none;text-decoration-style:solid;text-decoration-color:#000000;letter-spacing:normal;word-spacing:normal;text-transform:none;writing-mode:lr-tb;direction:ltr;text-orientation:mixed;dominant-baseline:auto;baseline-shift:baseline;text-anchor:start;white-space:normal;shape-padding:0;clip-rule:nonzero;display:inline;overflow:visible;visibility:visible;opacity:1;isolation:auto;mix-blend-mode:normal;color-interpolation:sRGB;color-interpolation-filters:linearRGB;solid-color:#000000;solid-opacity:1;vector-effect:none;fill:#ed2e7e;fill-opacity:1;fill-rule:nonzero;stroke:none;stroke-width:0.43188798;stroke-linecap:round;stroke-linejoin:round;stroke-miterlimit:4;stroke-dasharray:none;stroke-dashoffset:0;stroke-opacity:1;paint-order:markers fill stroke;color-rendering:auto;image-rendering:auto;shape-rendering:auto;text-rendering:auto;enable-background:accumulate" />
        </g>
        <g
           style="stroke-width:0.81616575"
           id="g2212">
          <path
             inkscape:export-ydpi="700.72992"
             inkscape:export-xdpi="700.72992"
             inkscape:connector-curvature="0"
             id="path1536"
             d="m -14.822266,289.9668 c -0.456871,0 -0.897542,0.18221 -1.216796,0.48242 -0.319255,0.30021 -0.518063,0.74211 -0.431641,1.2168 l 0.554687,3.04882 c 0.07621,0.41859 0.247118,0.8113 0.523438,1.10938 0.27632,0.29807 0.668128,0.49414 1.125,0.49414 h 2.498047 c 0.456872,0 0.84868,-0.19607 1.125,-0.49414 0.27632,-0.29808 0.447229,-0.69079 0.523437,-1.10938 l 0.5566409,-3.04882 c 0.086422,-0.47469 -0.1143391,-0.91659 -0.4335938,-1.2168 -0.3192551,-0.30021 -0.7579721,-0.48242 -1.2148441,-0.48242 z"
             style="color:#000000;font-style:normal;font-variant:normal;font-weight:normal;font-stretch:normal;font-size:medium;line-height:normal;font-family:sans-serif;font-variant-ligatures:normal;font-variant-position:normal;font-variant-caps:normal;font-variant-numeric:normal;font-variant-alternates:normal;font-feature-settings:normal;text-indent:0;text-align:start;text-decoration:none;text-decoration-line:none;text-decoration-style:solid;text-decoration-color:#000000;letter-spacing:normal;word-spacing:normal;text-transform:none;writing-mode:lr-tb;direction:ltr;text-orientation:mixed;dominant-baseline:auto;baseline-shift:baseline;text-anchor:start;white-space:normal;shape-padding:0;clip-rule:nonzero;display:inline;overflow:visible;visibility:visible;opacity:1;isolation:auto;mix-blend-mode:normal;color-interpolation:sRGB;color-interpolation-filters:linearRGB;solid-color:#000000;solid-opacity:1;vector-effect:none;fill:#b9dfff;fill-opacity:1;fill-rule:nonzero;stroke:none;stroke-width:0.43188798;stroke-linecap:round;stroke-linejoin:round;stroke-miterlimit:4;stroke-dasharray:none;stroke-dashoffset:0;stroke-opacity:1;paint-order:markers fill stroke;color-rendering:auto;image-rendering:auto;shape-rendering:auto;text-rendering:auto;enable-background:accumulate" />
          <path
             inkscape:export-ydpi="700.72992"
             inkscape:export-xdpi="700.72992"
             sodipodi:nodetypes="cccccscccccsccccc"
             inkscape:connector-curvature="0"
             id="path1555"
             transform="matrix(0.26458333,0,0,0.26458333,0,284.3)"
             d="m -56.021484,21.417969 c -1.726761,0 -3.391027,0.687613 -4.597657,1.822265 -1.206633,1.134652 -1.959446,2.805506 -1.632812,4.59961 l 0.0332,0.183594 c 0.228661,-1.076863 0.815391,-2.043827 1.599609,-2.78125 1.206633,-1.134652 2.8709,-1.822266 4.597657,-1.822266 h 13.642578 c 2.868813,0.05771 4.675104,1.749492 4.230468,4.419922 l -2.105468,11.523437 c -0.288038,1.582073 -0.932204,3.066758 -1.976563,4.19336 -1.044359,1.126563 -2.525193,1.867187 -4.251953,1.867187 h 2 c 1.72676,0 3.207594,-0.740624 4.251953,-1.867187 1.044359,-1.126602 1.688533,-2.611287 1.976563,-4.19336 0.424699,-4.234123 2.143069,-8.670483 2.156242,-12.837938 0,-3.416825 -4.104281,-5.107562 -6.28125,-5.107562 -4.483114,0.0026 -9.061451,8.99e-4 -13.642567,1.88e-4 z"
             style="color:#000000;font-style:normal;font-variant:normal;font-weight:normal;font-stretch:normal;font-size:medium;line-height:normal;font-family:sans-serif;font-variant-ligatures:normal;font-variant-position:normal;font-variant-caps:normal;font-variant-numeric:normal;font-variant-alternates:normal;font-feature-settings:normal;text-indent:0;text-align:start;text-decoration:none;text-decoration-line:none;text-decoration-style:solid;text-decoration-color:#000000;letter-spacing:normal;word-spacing:normal;text-transform:none;writing-mode:lr-tb;direction:ltr;text-orientation:mixed;dominant-baseline:auto;baseline-shift:baseline;text-anchor:start;white-space:normal;shape-padding:0;clip-rule:nonzero;display:inline;overflow:visible;visibility:visible;opacity:1;isolation:auto;mix-blend-mode:normal;color-interpolation:sRGB;color-interpolation-filters:linearRGB;solid-color:#000000;solid-opacity:1;vector-effect:none;fill:#81b3ff;fill-opacity:1;fill-rule:nonzero;stroke:none;stroke-width:1.63233244;stroke-linecap:round;stroke-linejoin:round;stroke-miterlimit:4;stroke-dasharray:none;stroke-dashoffset:0;stroke-opacity:1;paint-order:markers fill stroke;color-rendering:auto;image-rendering:auto;shape-rendering:auto;text-rendering:auto;enable-background:accumulate" />
          <path
             inkscape:export-ydpi="700.72992"
             inkscape:export-xdpi="700.72992"
             inkscape:connector-curvature="0"
             id="path1528"
             d="m -14.294922,288.85938 a 0.26460996,0.26460996 0 0 0 -0.238281,0.26367 v 1.10937 a 0.26460996,0.26460996 0 0 0 0.265625,0.26367 h 2.498047 a 0.26460996,0.26460996 0 0 0 0.265625,-0.26367 v -1.10937 a 0.26460996,0.26460996 0 0 0 -0.265625,-0.26367 h -2.498047 a 0.26460996,0.26460996 0 0 0 -0.02734,0 z"
             style="color:#000000;font-style:normal;font-variant:normal;font-weight:normal;font-stretch:normal;font-size:medium;line-height:normal;font-family:sans-serif;font-variant-ligatures:normal;font-variant-position:normal;font-variant-caps:normal;font-variant-numeric:normal;font-variant-alternates:normal;font-feature-settings:normal;text-indent:0;text-align:start;text-decoration:none;text-decoration-line:none;text-decoration-style:solid;text-decoration-color:#000000;letter-spacing:normal;word-spacing:normal;text-transform:none;writing-mode:lr-tb;direction:ltr;text-orientation:mixed;dominant-baseline:auto;baseline-shift:baseline;text-anchor:start;white-space:normal;shape-padding:0;clip-rule:nonzero;display:inline;overflow:visible;visibility:visible;opacity:1;isolation:auto;mix-blend-mode:normal;color-interpolation:sRGB;color-interpolation-filters:linearRGB;solid-color:#000000;solid-opacity:1;vector-effect:none;fill:#546e7a;fill-opacity:1;fill-rule:nonzero;stroke:none;stroke-width:0.43188798;stroke-linecap:round;stroke-linejoin:round;stroke-miterlimit:4;stroke-dasharray:none;stroke-dashoffset:0;stroke-opacity:1;paint-order:markers fill stroke;color-rendering:auto;image-rendering:auto;shape-rendering:auto;text-rendering:auto;enable-background:accumulate" />
          <path
             inkscape:export-ydpi="700.72992"
             inkscape:export-xdpi="700.72992"
             sodipodi:nodetypes="ccccccccccccc"
             inkscape:connector-curvature="0"
             id="path1550"
             d="m -14.29495,288.85944 c -0.135345,0.0136 -0.238361,0.12753 -0.238228,0.26355 v 0.6844 h 2.234489 c 0.14612,-5.5e-4 0.265032,0.11743 0.265616,0.26355 v 0.42509 h 0.26355 c 0.14612,5.6e-4 0.265033,-0.11743 0.265617,-0.26355 v -1.10949 c -5.84e-4,-0.14612 -0.119497,-0.26411 -0.265617,-0.26355 h -2.498038 c -0.0091,-4.7e-4 -0.01827,-4.7e-4 -0.02739,0 z"
             style="color:#000000;font-style:normal;font-variant:normal;font-weight:normal;font-stretch:normal;font-size:medium;line-height:normal;font-family:sans-serif;font-variant-ligatures:normal;font-variant-position:normal;font-variant-caps:normal;font-variant-numeric:normal;font-variant-alternates:normal;font-feature-settings:normal;text-indent:0;text-align:start;text-decoration:none;text-decoration-line:none;text-decoration-style:solid;text-decoration-color:#000000;letter-spacing:normal;word-spacing:normal;text-transform:none;writing-mode:lr-tb;direction:ltr;text-orientation:mixed;dominant-baseline:auto;baseline-shift:baseline;text-anchor:start;white-space:normal;shape-padding:0;clip-rule:nonzero;display:inline;overflow:visible;visibility:visible;opacity:1;isolation:auto;mix-blend-mode:normal;color-interpolation:sRGB;color-interpolation-filters:linearRGB;solid-color:#000000;solid-opacity:1;vector-effect:none;fill:#304a56;fill-opacity:1;fill-rule:nonzero;stroke:none;stroke-width:0.43188798;stroke-linecap:round;stroke-linejoin:round;stroke-miterlimit:4;stroke-dasharray:none;stroke-dashoffset:0;stroke-opacity:1;paint-order:markers fill stroke;color-rendering:auto;image-rendering:auto;shape-rendering:auto;text-rendering:auto;enable-background:accumulate" />
          <path
             inkscape:export-ydpi="700.72992"
             inkscape:export-xdpi="700.72992"
             inkscape:connector-curvature="0"
             id="path1459"
             d="m -14.044922,284.97656 c -0.418674,0 -0.765625,0.345 -0.765625,0.76367 v 3.38282 a 0.26460996,0.26460996 0 0 0 0.265625,0.26562 h 3.052734 a 0.26460996,0.26460996 0 0 0 0.265626,-0.26562 v -3.38282 c 0,-0.41867 -0.344999,-0.76367 -0.763672,-0.76367 z"
             style="color:#000000;font-style:normal;font-variant:normal;font-weight:normal;font-stretch:normal;font-size:medium;line-height:normal;font-family:sans-serif;font-variant-ligatures:normal;font-variant-position:normal;font-variant-caps:normal;font-variant-numeric:normal;font-variant-alternates:normal;font-feature-settings:normal;text-indent:0;text-align:start;text-decoration:none;text-decoration-line:none;text-decoration-style:solid;text-decoration-color:#000000;letter-spacing:normal;word-spacing:normal;text-transform:none;writing-mode:lr-tb;direction:ltr;text-orientation:mixed;dominant-baseline:auto;baseline-shift:baseline;text-anchor:start;white-space:normal;shape-padding:0;clip-rule:nonzero;display:inline;overflow:visible;visibility:visible;opacity:1;isolation:auto;mix-blend-mode:normal;color-interpolation:sRGB;color-interpolation-filters:linearRGB;solid-color:#000000;solid-opacity:1;vector-effect:none;fill:#b9dfff;fill-opacity:1;fill-rule:nonzero;stroke:none;stroke-width:0.43188798;stroke-linecap:round;stroke-linejoin:round;stroke-miterlimit:4;stroke-dasharray:none;stroke-dashoffset:0;stroke-opacity:1;paint-order:markers fill stroke;color-rendering:auto;image-rendering:auto;shape-rendering:auto;text-rendering:auto;enable-background:accumulate" />
          <path
             inkscape:export-ydpi="700.72992"
             inkscape:export-xdpi="700.72992"
             inkscape:connector-curvature="0"
             id="path1546"
             d="m -14.166016,291.02539 c -0.317045,0 -0.618081,0.12545 -0.839843,0.33399 -0.221763,0.20853 -0.366099,0.52401 -0.304688,0.86132 l 0.353516,1.94141 c 0.0512,0.28121 0.166088,0.54751 0.357422,0.75391 0.191333,0.20639 0.46811,0.3457 0.785156,0.3457 h 1.591797 c 0.317046,0 0.59382,-0.13931 0.785156,-0.3457 0.191336,-0.2064 0.306231,-0.4727 0.357422,-0.75391 l 0.353516,-1.94141 c 0.06141,-0.33731 -0.08293,-0.65279 -0.304688,-0.86132 -0.221762,-0.20854 -0.520844,-0.33399 -0.837891,-0.33399 z"
             style="color:#000000;font-style:normal;font-variant:normal;font-weight:normal;font-stretch:normal;font-size:medium;line-height:normal;font-family:sans-serif;font-variant-ligatures:normal;font-variant-position:normal;font-variant-caps:normal;font-variant-numeric:normal;font-variant-alternates:normal;font-feature-settings:normal;text-indent:0;text-align:start;text-decoration:none;text-decoration-line:none;text-decoration-style:solid;text-decoration-color:#000000;letter-spacing:normal;word-spacing:normal;text-transform:none;writing-mode:lr-tb;direction:ltr;text-orientation:mixed;dominant-baseline:auto;baseline-shift:baseline;text-anchor:start;white-space:normal;shape-padding:0;clip-rule:nonzero;display:inline;overflow:visible;visibility:visible;opacity:1;isolation:auto;mix-blend-mode:normal;color-interpolation:sRGB;color-interpolation-filters:linearRGB;solid-color:#000000;solid-opacity:1;vector-effect:none;fill:#ff4081;fill-opacity:1;fill-rule:nonzero;stroke:none;stroke-width:0.43188798;stroke-linecap:round;stroke-linejoin:round;stroke-miterlimit:4;stroke-dasharray:none;stroke-dashoffset:0;stroke-opacity:1;paint-order:markers fill stroke;color-rendering:auto;image-rendering:auto;shape-rendering:auto;text-rendering:auto;enable-background:accumulate" />
          <path
             inkscape:export-ydpi="700.72992"
             inkscape:export-xdpi="700.72992"
             inkscape:connector-curvature="0"
             id="path1462"
             d="m -14.044994,284.97649 c -0.348211,0 -0.643677,0.24002 -0.734323,0.56121 0.06589,-0.0187 0.133725,-0.032 0.205156,-0.032 h 2.054655 c 0.418673,0 0.763777,0.34511 0.763777,0.76378 v 3.11919 h 0.26355 a 0.26460995,0.26460995 0 0 0 0.265617,-0.26562 v -3.38274 c 0,-0.41867 -0.345105,-0.76378 -0.763777,-0.76378 z"
             style="color:#000000;font-style:normal;font-variant:normal;font-weight:normal;font-stretch:normal;font-size:medium;line-height:normal;font-family:sans-serif;font-variant-ligatures:normal;font-variant-position:normal;font-variant-caps:normal;font-variant-numeric:normal;font-variant-alternates:normal;font-feature-settings:normal;text-indent:0;text-align:start;text-decoration:none;text-decoration-line:none;text-decoration-style:solid;text-decoration-color:#000000;letter-spacing:normal;word-spacing:normal;text-transform:none;writing-mode:lr-tb;direction:ltr;text-orientation:mixed;dominant-baseline:auto;baseline-shift:baseline;text-anchor:start;white-space:normal;shape-padding:0;clip-rule:nonzero;display:inline;overflow:visible;visibility:visible;opacity:1;isolation:auto;mix-blend-mode:normal;color-interpolation:sRGB;color-interpolation-filters:linearRGB;solid-color:#000000;solid-opacity:1;vector-effect:none;fill:#81b3ff;fill-opacity:1;fill-rule:nonzero;stroke:none;stroke-width:0.43188798;stroke-linecap:round;stroke-linejoin:round;stroke-miterlimit:4;stroke-dasharray:none;stroke-dashoffset:0;stroke-opacity:1;paint-order:markers fill stroke;color-rendering:auto;image-rendering:auto;shape-rendering:auto;text-rendering:auto;enable-background:accumulate" />
          <path
             inkscape:export-ydpi="700.72992"
             inkscape:export-xdpi="700.72992"
             inkscape:connector-curvature="0"
             id="path1571"
             d="m -14.165796,291.02517 c -0.317045,0 -0.61798,0.12581 -0.839742,0.33435 -0.09743,0.0916 -0.17847,0.20453 -0.235128,0.33021 0.167203,-0.0838 0.352184,-0.13539 0.545703,-0.13539 h 2.297017 c 0.317047,0 0.615913,0.1258 0.837675,0.33434 0.221758,0.20853 0.366301,0.52362 0.304891,0.86093 l -0.353466,1.94149 c -0.02999,0.16476 -0.08494,0.32271 -0.161231,0.46819 0.127322,-0.0603 0.240303,-0.14363 0.332796,-0.2434 0.191336,-0.2064 0.30641,-0.47275 0.357601,-0.75396 l 0.353467,-1.94148 c 0.06141,-0.33731 -0.08313,-0.6524 -0.304891,-0.86093 -0.221762,-0.20854 -0.520628,-0.33435 -0.837675,-0.33435 z"
             style="color:#000000;font-style:normal;font-variant:normal;font-weight:normal;font-stretch:normal;font-size:medium;line-height:normal;font-family:sans-serif;font-variant-ligatures:normal;font-variant-position:normal;font-variant-caps:normal;font-variant-numeric:normal;font-variant-alternates:normal;font-feature-settings:normal;text-indent:0;text-align:start;text-decoration:none;text-decoration-line:none;text-decoration-style:solid;text-decoration-color:#000000;letter-spacing:normal;word-spacing:normal;text-transform:none;writing-mode:lr-tb;direction:ltr;text-orientation:mixed;dominant-baseline:auto;baseline-shift:baseline;text-anchor:start;white-space:normal;shape-padding:0;clip-rule:nonzero;display:inline;overflow:visible;visibility:visible;opacity:1;isolation:auto;mix-blend-mode:normal;color-interpolation:sRGB;color-interpolation-filters:linearRGB;solid-color:#000000;solid-opacity:1;vector-effect:none;fill:#e51d71;fill-opacity:1;fill-rule:nonzero;stroke:none;stroke-width:0.43188798;stroke-linecap:round;stroke-linejoin:round;stroke-miterlimit:4;stroke-dasharray:none;stroke-dashoffset:0;stroke-opacity:1;paint-order:markers fill stroke;color-rendering:auto;image-rendering:auto;shape-rendering:auto;text-rendering:auto;enable-background:accumulate" />
        </g>
      </g>
      <path
         sodipodi:nodetypes="cscccsccccsscccsscccsccsssccsscccccccccsccccscccccccsscccccccccccccccccccsccccccccccsccscsccsscssccccssscccsscsccssccccssssccccssccccsccsccscc"
         inkscape:connector-curvature="0"
         id="rect1249"
         d="m 10.448412,281.03675 c -0.5129767,0 -0.9377113,0.42284 -0.9377113,0.93581 v 4.10162 c 0,0.18942 0.1028835,0.37165 0.339997,0.37165 v 0.70534 H 9.4961275 c -0.5597783,0 -1.0992987,0.22291 -1.4904619,0.59074 -0.3911644,0.36783 -0.6352104,0.90949 -0.5293228,1.4911 l 0.6800152,3.73564 c 0.093376,0.51287 0.3028342,0.99419 0.6413929,1.35941 0.3385587,0.3652 0.8186131,0.60529 1.3783901,0.60529 h 3.060701 c 0.559778,0 1.039833,-0.24009 1.378391,-0.60529 0.338559,-0.36522 0.547387,-0.84654 0.640759,-1.35941 l 0.682547,-3.73564 c 0.105886,-0.58161 -0.140057,-1.12327 -0.531221,-1.4911 -0.391165,-0.36783 -0.928783,-0.59074 -1.488562,-0.59074 h -0.356469 v -0.70787 c 0.225885,0 0.340007,-0.14984 0.340007,-0.32545 v -4.14529 c 0,-0.51297 -0.422837,-0.93517 -0.935813,-0.93517 z m 0,0.64836 h 2.517448 c 0.165467,0 0.287454,0.12295 0.287454,0.28745 v 3.82176 h -3.094256 v -3.82176 c 0,-0.1645 0.123885,-0.28745 0.289354,-0.28745 z m 1.866558,0.60783 c -0.178042,0.004 -0.31995,0.14991 -0.317847,0.32797 v 1.29735 c 0.0094,0.42276 0.638975,0.42276 0.648357,0 v -1.29735 c 0.0022,-0.18301 -0.147511,-0.33154 -0.33051,-0.32797 z M 2.2236501,284.5166 c -0.2706559,0.32479 -0.2773249,0.69141 -0.2773249,0.69141 v 1.05802 c -0.5877128,0.41012 -0.97190183,1.09142 -0.97190183,1.86148 v 6.42279 c 0,0.231 0.10372893,0.38371 0.37862893,0.38371 h 5.1330361 c 0.1781596,-6.1e-4 0.3222812,-0.14539 0.3229121,-0.32355 v -6.48231 c 0,-0.7693 -0.3848506,-1.4489 -0.9719019,-1.85896 v -1.06118 c 0,0 -0.00674,-0.36662 -0.2773249,-0.69141 -0.2706555,-0.32478 -0.7924639,-0.6034 -1.6677456,-0.6034 -0.8752806,0 -1.3977234,0.27862 -1.668378,0.6034 z m 2.8384615,0.41409 c 0.134567,0.16147 0.1266311,0.27732 0.1266311,0.27732 v 2.59407 c 0,0.72398 -0.5727269,1.29671 -1.2967134,1.29671 -0.1551829,0 -0.3016238,-0.0306 -0.4387797,-0.0792 0.014899,-0.25496 0.05913,-0.42927 0.1215684,-0.57174 0.1506679,0.0195 0.2968086,0.007 0.4248512,-0.0216 0.2157048,-0.0478 0.3709088,-0.10354 0.5217238,-0.24188 0.2324721,-0.2077 0.066175,-0.59178 -0.2444001,-0.56477 v 6.5e-4 c -0.072743,0.007 -0.1409641,0.0381 -0.1937475,0.0886 0.012755,-0.0122 -0.01458,0.002 -0.03862,0.0146 0.1647165,-0.27706 0.3115152,-0.64673 0.3115152,-1.1973 0.00317,-0.19597 -0.1668535,-0.34994 -0.3615345,-0.32735 -0.1657739,0.0189 -0.2901408,0.16052 -0.2874551,0.32735 0,0.11725 -0.00637,0.21472 -0.016467,0.30391 -0.087299,-0.0507 -0.1098919,-0.0787 -0.1145968,-0.0931 -0.043521,-0.13933 -0.1751324,-0.23236 -0.321012,-0.22731 -0.2166742,0.009 -0.3642385,0.22336 -0.2944206,0.42865 0.08007,0.244 0.2728257,0.37858 0.4191526,0.46157 0.038399,0.0218 0.04923,0.0279 0.083574,0.0462 -0.044525,0.0636 -0.093204,0.12672 -0.1462595,0.19817 -0.1622011,0.21842 -0.3519212,0.50788 -0.4508116,0.94974 -0.1682195,-0.21864 -0.2716262,-0.49063 -0.2716262,-0.79208 v -2.59407 c 0,0 -0.00796,-0.11591 0.1266323,-0.27732 0.1345671,-0.16149 0.4251049,-0.36913 1.1707144,-0.36914 0.7456096,0 1.0355139,0.20764 1.1700811,0.36913 z m 5.4369524,1.51262 h 2.414243 v 0.70787 H 10.499064 Z M 5.8371,287.15372 c 0.2026941,0.27013 0.3235455,0.60606 0.3235455,0.97443 v 6.15939 H 1.623414 v -6.15939 c 0,-0.36712 0.1209559,-0.70194 0.3229112,-0.9719 v 0.64583 c 0,0.72056 0.3957543,1.34988 0.9801343,1.6861 0.027396,0.021 0.057966,0.0374 0.090545,0.0488 0.2634625,0.13355 0.56026,0.21083 0.8750282,0.21083 1.071961,0 1.9450705,-0.87373 1.9450705,-1.94569 z m 3.6590372,0.64582 h 4.4226298 c 0.382549,0 0.777581,0.16409 1.04345,0.41408 0.265869,0.25001 0.400147,0.55803 0.337474,0.90226 l -0.680015,3.73819 c -0.07519,0.41298 -0.244476,0.78068 -0.47867,1.03331 -0.234194,0.25264 -0.521607,0.39953 -0.904153,0.39953 h -3.060701 c -0.3825457,0 -0.66806,-0.14689 -0.902254,-0.39953 -0.2341936,-0.25263 -0.4060153,-0.62033 -0.4812023,-1.03331 l -0.6793818,-3.73819 c -0.062671,-0.34423 0.071603,-0.65225 0.3374744,-0.90226 0.2658686,-0.24999 0.6628019,-0.41408 1.0453489,-0.41408 z m 0.8041148,0.64836 c -0.3884565,0 -0.7571743,0.15414 -1.0288864,0.40965 -0.2717132,0.2555 -0.4488082,0.64156 -0.3735652,1.05485 l 0.4330824,2.37879 c 0.062732,0.34455 0.2037172,0.67088 0.4381475,0.92377 0.2344297,0.25289 0.5733137,0.42359 0.9617717,0.42359 h 1.950769 c 0.388458,0 0.727338,-0.1707 0.96177,-0.42359 0.234433,-0.25289 0.375427,-0.57922 0.438148,-0.92377 l 0.433082,-2.37879 c 0.07524,-0.41329 -0.101854,-0.79935 -0.373565,-1.05485 -0.271712,-0.25551 -0.637895,-0.40965 -1.026354,-0.40965 z m 0,0.64899 h 2.8144 c 0.211231,0 0.437359,0.0941 0.583775,0.23174 0.146416,0.13768 0.211211,0.29072 0.179184,0.46663 l -0.433082,2.37878 c -0.04454,0.24465 -0.144726,0.45805 -0.274791,0.59835 -0.130064,0.1403 -0.276939,0.2178 -0.488167,0.2178 h -1.950769 c -0.211228,0 -0.358104,-0.0774 -0.488168,-0.2178 -0.130063,-0.1403 -0.230248,-0.35369 -0.2747909,-0.59835 l -0.4330826,-2.37878 c -0.032029,-0.17591 0.032763,-0.32895 0.1791844,-0.46663 0.1464162,-0.13768 0.3750791,-0.23174 0.5863071,-0.23174 z m -7.5738719,1.01179 c -0.326446,0.0122 -0.4322382,0.44465 -0.1481599,0.60593 0.3556263,0.21338 0.8126266,0.32988 1.3138091,0.32988 0.5011813,0 0.9575506,-0.11652 1.3131769,-0.32988 0.3718754,-0.22161 0.039465,-0.77941 -0.3324103,-0.55782 -0.2303285,0.1382 -0.5839748,0.23934 -0.9807666,0.23934 -0.3967932,0 -0.7510717,-0.10108 -0.9813999,-0.23934 -0.055222,-0.0342 -0.1193998,-0.0508 -0.1842493,-0.0482 z"
         style="color:#000000;font-style:normal;font-variant:normal;font-weight:normal;font-stretch:normal;font-size:medium;line-height:normal;font-family:sans-serif;font-variant-ligatures:normal;font-variant-position:normal;font-variant-caps:normal;font-variant-numeric:normal;font-variant-alternates:normal;font-feature-settings:normal;text-indent:0;text-align:start;text-decoration:none;text-decoration-line:none;text-decoration-style:solid;text-decoration-color:#000000;letter-spacing:normal;word-spacing:normal;text-transform:none;writing-mode:lr-tb;direction:ltr;text-orientation:mixed;dominant-baseline:auto;baseline-shift:baseline;text-anchor:start;white-space:normal;shape-padding:0;clip-rule:nonzero;display:inline;overflow:visible;visibility:visible;opacity:1;isolation:auto;mix-blend-mode:normal;color-interpolation:sRGB;color-interpolation-filters:linearRGB;solid-color:#000000;solid-opacity:1;vector-effect:none;fill:#1a1a1a;fill-opacity:1;fill-rule:nonzero;stroke:none;stroke-width:0.52916598;stroke-linecap:round;stroke-linejoin:round;stroke-miterlimit:4;stroke-dasharray:none;stroke-dashoffset:0;stroke-opacity:1;paint-order:markers fill stroke;color-rendering:auto;image-rendering:auto;shape-rendering:auto;text-rendering:auto;enable-background:accumulate" />
    </g>
  </g>
</svg>
