<svg width="32" height="32" xmlns="http://www.w3.org/2000/svg">
 <defs>
  <style>.cls-1{fill:none;}</style>
 </defs>
 <title/>
 <g>
  <title>background</title>
  <rect fill="none" id="canvas_background" height="402" width="582" y="-1" x="-1"/>
 </g>
 <g>
  <title>Layer 1</title>
  <g id="Layer_2">
   <path  id="svg_1" d="m16,29a13,13 0 1 1 13,-13a13,13 0 0 1 -13,13zm0,-24a11,11 0 1 0 11,11a11,11 0 0 0 -11,-11z"/>
   <path id="svg_2" d="m11.76,21.24a1,1 0 0 1 -0.71,-0.29a1,1 0 0 1 0,-1.41l8.49,-8.49a1,1 0 0 1 1.46,1.41l-8.54,8.54a1,1 0 0 1 -0.7,0.24z"/>
   <path id="svg_3" d="m20.24,21.24a1,1 0 0 1 -0.7,-0.29l-8.49,-8.49a1,1 0 0 1 1.41,-1.41l8.54,8.49a1,1 0 0 1 0,1.46a1,1 0 0 1 -0.76,0.24z"/>
  </g>
 </g>
</svg>